<svg width="500" height="500" viewBox="0 0 500 500" xmlns="http://www.w3.org/2000/svg"><rect width="500" height="500" fill="#FFFFFF"/><line x1="160" y1="160" x2="340" y2="160" stroke="#E2E8F0" stroke-width="1.5"/><line x1="160" y1="340" x2="340" y2="340" stroke="#E2E8F0" stroke-width="1.5"/><line x1="160" y1="160" x2="160" y2="340" stroke="#E2E8F0" stroke-width="1.5"/><line x1="340" y1="160" x2="340" y2="340" stroke="#E2E8F0" stroke-width="1.5"/><line x1="250" y1="160" x2="250" y2="340" stroke="#E2E8F0" stroke-width="1.5"/><line x1="160" y1="250" x2="340" y2="250" stroke="#E2E8F0" stroke-width="1.5"/><linearGradient id="gg034_C_TL" x1="0" y1="0" x2="1" y2="1"><stop offset="0%" stop-color="#BAE6FD"/><stop offset="40%" stop-color="#0EA5E9"/><stop offset="100%" stop-color="#0369A1"/></linearGradient><linearGradient id="gs034_C_TL" x1="0.15" y1="0.05" x2="0.85" y2="0.95"><stop offset="0%" stop-color="white" stop-opacity="0.28"/><stop offset="55%" stop-color="white" stop-opacity="0"/></linearGradient><filter id="gf034_C_TL" x="-60%" y="-60%" width="220%" height="220%"><feGaussianBlur in="SourceAlpha" stdDeviation="5" result="b"/><feOffset dx="0" dy="4" result="o"/><feFlood flood-color="#0369A1" flood-opacity="0.25" result="fc"/><feComposite in="fc" in2="o" operator="in" result="s"/><feMerge><feMergeNode in="s"/><feMergeNode in="SourceGraphic"/></feMerge></filter><circle cx="205.0" cy="205.0" r="24.0" fill="url(#gg034_C_TL)" filter="url(#gf034_C_TL)" stroke="#0369A1" stroke-width="0.7"/><circle cx="205.0" cy="205.0" r="24.0" fill="url(#gs034_C_TL)" stroke="none"/><linearGradient id="gg034_C_TR" x1="0" y1="0" x2="1" y2="1"><stop offset="0%" stop-color="#BFDBFE"/><stop offset="40%" stop-color="#3B82F6"/><stop offset="100%" stop-color="#1E3A8A"/></linearGradient><linearGradient id="gs034_C_TR" x1="0.15" y1="0.05" x2="0.85" y2="0.95"><stop offset="0%" stop-color="white" stop-opacity="0.28"/><stop offset="55%" stop-color="white" stop-opacity="0"/></linearGradient><filter id="gf034_C_TR" x="-60%" y="-60%" width="220%" height="220%"><feGaussianBlur in="SourceAlpha" stdDeviation="5" result="b"/><feOffset dx="0" dy="4" result="o"/><feFlood flood-color="#1E3A8A" flood-opacity="0.25" result="fc"/><feComposite in="fc" in2="o" operator="in" result="s"/><feMerge><feMergeNode in="s"/><feMergeNode in="SourceGraphic"/></feMerge></filter><rect x="271.0" y="181.0" width="48.0" height="48.0" fill="url(#gg034_C_TR)" filter="url(#gf034_C_TR)" stroke="#1E3A8A" stroke-width="0.7"/><rect x="271.0" y="181.0" width="48.0" height="48.0" fill="url(#gs034_C_TR)" stroke="none"/><linearGradient id="gg034_C_BL" x1="0" y1="0" x2="1" y2="1"><stop offset="0%" stop-color="#C7D2FE"/><stop offset="40%" stop-color="#6366F1"/><stop offset="100%" stop-color="#3730A3"/></linearGradient><linearGradient id="gs034_C_BL" x1="0.15" y1="0.05" x2="0.85" y2="0.95"><stop offset="0%" stop-color="white" stop-opacity="0.28"/><stop offset="55%" stop-color="white" stop-opacity="0"/></linearGradient><filter id="gf034_C_BL" x="-60%" y="-60%" width="220%" height="220%"><feGaussianBlur in="SourceAlpha" stdDeviation="5" result="b"/><feOffset dx="0" dy="4" result="o"/><feFlood flood-color="#3730A3" flood-opacity="0.25" result="fc"/><feComposite in="fc" in2="o" operator="in" result="s"/><feMerge><feMergeNode in="s"/><feMergeNode in="SourceGraphic"/></feMerge></filter><polygon points="205.00,266.68 229.53,309.16 180.47,309.16" fill="url(#gg034_C_BL)" filter="url(#gf034_C_BL)" stroke="#3730A3" stroke-width="0.7" stroke-linejoin="round"/><polygon points="205.00,266.68 229.53,309.16 180.47,309.16" fill="url(#gs034_C_BL)" stroke="none"/><linearGradient id="gg034_C_BR" x1="0" y1="0" x2="1" y2="1"><stop offset="0%" stop-color="#E0F2FE"/><stop offset="40%" stop-color="#0EA5E9"/><stop offset="100%" stop-color="#075985"/></linearGradient><linearGradient id="gs034_C_BR" x1="0.15" y1="0.05" x2="0.85" y2="0.95"><stop offset="0%" stop-color="white" stop-opacity="0.28"/><stop offset="55%" stop-color="white" stop-opacity="0"/></linearGradient><filter id="gf034_C_BR" x="-60%" y="-60%" width="220%" height="220%"><feGaussianBlur in="SourceAlpha" stdDeviation="5" result="b"/><feOffset dx="0" dy="4" result="o"/><feFlood flood-color="#075985" flood-opacity="0.25" result="fc"/><feComposite in="fc" in2="o" operator="in" result="s"/><feMerge><feMergeNode in="s"/><feMergeNode in="SourceGraphic"/></feMerge></filter><polygon points="295.00,272.20 300.92,286.85 316.68,287.95 304.59,298.11 308.40,313.45 295.00,305.08 281.60,313.45 285.41,298.11 273.32,287.95 289.08,286.85" fill="url(#gg034_C_BR)" filter="url(#gf034_C_BR)" stroke="#075985" stroke-width="0.7"/><polygon points="295.00,272.20 300.92,286.85 316.68,287.95 304.59,298.11 308.40,313.45 295.00,305.08 281.60,313.45 285.41,298.11 273.32,287.95 289.08,286.85" fill="url(#gs034_C_BR)" stroke="none"/></svg>