<svg width="500" height="500" viewBox="0 0 500 500" xmlns="http://www.w3.org/2000/svg"><defs><linearGradient id="gsGf_B1_050_B_0" x1="0.15" y1="0.05" x2="0.85" y2="0.95"><stop offset="0%" stop-color="white" stop-opacity="0.28"/><stop offset="55%" stop-color="white" stop-opacity="0"/></linearGradient><filter id="gfGf_B1_050_B_0" x="-60%" y="-60%" width="220%" height="220%"><feGaussianBlur in="SourceAlpha" stdDeviation="8" result="b"/><feOffset dx="0" dy="7" result="o"/><feFlood flood-color="#075985" flood-opacity="0.25" result="fc"/><feComposite in="fc" in2="o" operator="in" result="s"/><feMerge><feMergeNode in="s"/><feMergeNode in="SourceGraphic"/></feMerge></filter><linearGradient id="gsGf_B1_050_B_1" x1="0.15" y1="0.05" x2="0.85" y2="0.95"><stop offset="0%" stop-color="white" stop-opacity="0.28"/><stop offset="55%" stop-color="white" stop-opacity="0"/></linearGradient><filter id="gfGf_B1_050_B_1" x="-60%" y="-60%" width="220%" height="220%"><feGaussianBlur in="SourceAlpha" stdDeviation="8" result="b"/><feOffset dx="0" dy="7" result="o"/><feFlood flood-color="#075985" flood-opacity="0.25" result="fc"/><feComposite in="fc" in2="o" operator="in" result="s"/><feMerge><feMergeNode in="s"/><feMergeNode in="SourceGraphic"/></feMerge></filter><linearGradient id="gsGf_B1_050_B_2" x1="0.15" y1="0.05" x2="0.85" y2="0.95"><stop offset="0%" stop-color="white" stop-opacity="0.28"/><stop offset="55%" stop-color="white" stop-opacity="0"/></linearGradient><filter id="gfGf_B1_050_B_2" x="-60%" y="-60%" width="220%" height="220%"><feGaussianBlur in="SourceAlpha" stdDeviation="8" result="b"/><feOffset dx="0" dy="7" result="o"/><feFlood flood-color="#075985" flood-opacity="0.25" result="fc"/><feComposite in="fc" in2="o" operator="in" result="s"/><feMerge><feMergeNode in="s"/><feMergeNode in="SourceGraphic"/></feMerge></filter><linearGradient id="gsGf_B1_050_B_3" x1="0.15" y1="0.05" x2="0.85" y2="0.95"><stop offset="0%" stop-color="white" stop-opacity="0.28"/><stop offset="55%" stop-color="white" stop-opacity="0"/></linearGradient><filter id="gfGf_B1_050_B_3" x="-60%" y="-60%" width="220%" height="220%"><feGaussianBlur in="SourceAlpha" stdDeviation="8" result="b"/><feOffset dx="0" dy="7" result="o"/><feFlood flood-color="#075985" flood-opacity="0.25" result="fc"/><feComposite in="fc" in2="o" operator="in" result="s"/><feMerge><feMergeNode in="s"/><feMergeNode in="SourceGraphic"/></feMerge></filter></defs><rect width="500" height="500" fill="#FFFFFF"/><polygon points="97.00,204.40 108.85,233.69 140.37,235.91 116.17,256.23 123.80,286.89 97.00,270.16 70.20,286.89 77.83,256.23 53.63,235.91 85.15,233.69" fill="none" filter="url(#gfGf_B1_050_B_0)" stroke="#0EA5E9" stroke-width="2.0"/><polygon points="199.00,204.40 210.85,233.69 242.37,235.91 218.17,256.23 225.80,286.89 199.00,270.16 172.20,286.89 179.83,256.23 155.63,235.91 187.15,233.69" fill="none" filter="url(#gfGf_B1_050_B_1)" stroke="#0EA5E9" stroke-width="2.0"/><polygon points="301.00,204.40 312.85,233.69 344.37,235.91 320.17,256.23 327.80,286.89 301.00,270.16 274.20,286.89 281.83,256.23 257.63,235.91 289.15,233.69" fill="none" filter="url(#gfGf_B1_050_B_2)" stroke="#0EA5E9" stroke-width="2.0"/><polygon points="403.00,204.40 414.85,233.69 446.37,235.91 422.17,256.23 429.80,286.89 403.00,270.16 376.20,286.89 383.83,256.23 359.63,235.91 391.15,233.69" fill="none" filter="url(#gfGf_B1_050_B_3)" stroke="#0EA5E9" stroke-width="2.0"/></svg>