<svg width="816" height="170" viewBox="0 0 816 170" xmlns="http://www.w3.org/2000/svg"><defs><linearGradient id="ggGf_B1_041_s0_0" x1="0" y1="0" x2="1" y2="1"><stop offset="0%" stop-color="#E0F2FE"/><stop offset="40%" stop-color="#0EA5E9"/><stop offset="100%" stop-color="#075985"/></linearGradient><linearGradient id="gsGf_B1_041_s0_0" x1="0.15" y1="0.05" x2="0.85" y2="0.95"><stop offset="0%" stop-color="white" stop-opacity="0.28"/><stop offset="55%" stop-color="white" stop-opacity="0"/></linearGradient><filter id="gfGf_B1_041_s0_0" x="-60%" y="-60%" width="220%" height="220%"><feGaussianBlur in="SourceAlpha" stdDeviation="6" result="b"/><feOffset dx="0" dy="5" result="o"/><feFlood flood-color="#075985" flood-opacity="0.25" result="fc"/><feComposite in="fc" in2="o" operator="in" result="s"/><feMerge><feMergeNode in="s"/><feMergeNode in="SourceGraphic"/></feMerge></filter><linearGradient id="ggGf_B1_041_s0_1" x1="0" y1="0" x2="1" y2="1"><stop offset="0%" stop-color="#E0F2FE"/><stop offset="40%" stop-color="#0EA5E9"/><stop offset="100%" stop-color="#075985"/></linearGradient><linearGradient id="gsGf_B1_041_s0_1" x1="0.15" y1="0.05" x2="0.85" y2="0.95"><stop offset="0%" stop-color="white" stop-opacity="0.28"/><stop offset="55%" stop-color="white" stop-opacity="0"/></linearGradient><filter id="gfGf_B1_041_s0_1" x="-60%" y="-60%" width="220%" height="220%"><feGaussianBlur in="SourceAlpha" stdDeviation="6" result="b"/><feOffset dx="0" dy="5" result="o"/><feFlood flood-color="#075985" flood-opacity="0.25" result="fc"/><feComposite in="fc" in2="o" operator="in" result="s"/><feMerge><feMergeNode in="s"/><feMergeNode in="SourceGraphic"/></feMerge></filter><linearGradient id="ggGf_B1_041_s0_2" x1="0" y1="0" x2="1" y2="1"><stop offset="0%" stop-color="#E0F2FE"/><stop offset="40%" stop-color="#0EA5E9"/><stop offset="100%" stop-color="#075985"/></linearGradient><linearGradient id="gsGf_B1_041_s0_2" x1="0.15" y1="0.05" x2="0.85" y2="0.95"><stop offset="0%" stop-color="white" stop-opacity="0.28"/><stop offset="55%" stop-color="white" stop-opacity="0"/></linearGradient><filter id="gfGf_B1_041_s0_2" x="-60%" y="-60%" width="220%" height="220%"><feGaussianBlur in="SourceAlpha" stdDeviation="6" result="b"/><feOffset dx="0" dy="5" result="o"/><feFlood flood-color="#075985" flood-opacity="0.25" result="fc"/><feComposite in="fc" in2="o" operator="in" result="s"/><feMerge><feMergeNode in="s"/><feMergeNode in="SourceGraphic"/></feMerge></filter><linearGradient id="ggGf_B1_041_s1" x1="0" y1="0" x2="1" y2="1"><stop offset="0%" stop-color="#E0F2FE"/><stop offset="40%" stop-color="#0EA5E9"/><stop offset="100%" stop-color="#075985"/></linearGradient><linearGradient id="gsGf_B1_041_s1" x1="0.15" y1="0.05" x2="0.85" y2="0.95"><stop offset="0%" stop-color="white" stop-opacity="0.28"/><stop offset="55%" stop-color="white" stop-opacity="0"/></linearGradient><filter id="gfGf_B1_041_s1" x="-60%" y="-60%" width="220%" height="220%"><feGaussianBlur in="SourceAlpha" stdDeviation="6" result="b"/><feOffset dx="0" dy="5" result="o"/><feFlood flood-color="#075985" flood-opacity="0.25" result="fc"/><feComposite in="fc" in2="o" operator="in" result="s"/><feMerge><feMergeNode in="s"/><feMergeNode in="SourceGraphic"/></feMerge></filter><linearGradient id="ggGf_B1_041_s2_0" x1="0" y1="0" x2="1" y2="1"><stop offset="0%" stop-color="#BAE6FD"/><stop offset="40%" stop-color="#0EA5E9"/><stop offset="100%" stop-color="#0369A1"/></linearGradient><linearGradient id="gsGf_B1_041_s2_0" x1="0.15" y1="0.05" x2="0.85" y2="0.95"><stop offset="0%" stop-color="white" stop-opacity="0.28"/><stop offset="55%" stop-color="white" stop-opacity="0"/></linearGradient><filter id="gfGf_B1_041_s2_0" x="-60%" y="-60%" width="220%" height="220%"><feGaussianBlur in="SourceAlpha" stdDeviation="6" result="b"/><feOffset dx="0" dy="5" result="o"/><feFlood flood-color="#0369A1" flood-opacity="0.25" result="fc"/><feComposite in="fc" in2="o" operator="in" result="s"/><feMerge><feMergeNode in="s"/><feMergeNode in="SourceGraphic"/></feMerge></filter><linearGradient id="ggGf_B1_041_s2_1" x1="0" y1="0" x2="1" y2="1"><stop offset="0%" stop-color="#BAE6FD"/><stop offset="40%" stop-color="#0EA5E9"/><stop offset="100%" stop-color="#0369A1"/></linearGradient><linearGradient id="gsGf_B1_041_s2_1" x1="0.15" y1="0.05" x2="0.85" y2="0.95"><stop offset="0%" stop-color="white" stop-opacity="0.28"/><stop offset="55%" stop-color="white" stop-opacity="0"/></linearGradient><filter id="gfGf_B1_041_s2_1" x="-60%" y="-60%" width="220%" height="220%"><feGaussianBlur in="SourceAlpha" stdDeviation="6" result="b"/><feOffset dx="0" dy="5" result="o"/><feFlood flood-color="#0369A1" flood-opacity="0.25" result="fc"/><feComposite in="fc" in2="o" operator="in" result="s"/><feMerge><feMergeNode in="s"/><feMergeNode in="SourceGraphic"/></feMerge></filter><linearGradient id="ggGf_B1_041_s2_2" x1="0" y1="0" x2="1" y2="1"><stop offset="0%" stop-color="#BAE6FD"/><stop offset="40%" stop-color="#0EA5E9"/><stop offset="100%" stop-color="#0369A1"/></linearGradient><linearGradient id="gsGf_B1_041_s2_2" x1="0.15" y1="0.05" x2="0.85" y2="0.95"><stop offset="0%" stop-color="white" stop-opacity="0.28"/><stop offset="55%" stop-color="white" stop-opacity="0"/></linearGradient><filter id="gfGf_B1_041_s2_2" x="-60%" y="-60%" width="220%" height="220%"><feGaussianBlur in="SourceAlpha" stdDeviation="6" result="b"/><feOffset dx="0" dy="5" result="o"/><feFlood flood-color="#0369A1" flood-opacity="0.25" result="fc"/><feComposite in="fc" in2="o" operator="in" result="s"/><feMerge><feMergeNode in="s"/><feMergeNode in="SourceGraphic"/></feMerge></filter><linearGradient id="ggGf_B1_041_s2_3" x1="0" y1="0" x2="1" y2="1"><stop offset="0%" stop-color="#BAE6FD"/><stop offset="40%" stop-color="#0EA5E9"/><stop offset="100%" stop-color="#0369A1"/></linearGradient><linearGradient id="gsGf_B1_041_s2_3" x1="0.15" y1="0.05" x2="0.85" y2="0.95"><stop offset="0%" stop-color="white" stop-opacity="0.28"/><stop offset="55%" stop-color="white" stop-opacity="0"/></linearGradient><filter id="gfGf_B1_041_s2_3" x="-60%" y="-60%" width="220%" height="220%"><feGaussianBlur in="SourceAlpha" stdDeviation="6" result="b"/><feOffset dx="0" dy="5" result="o"/><feFlood flood-color="#0369A1" flood-opacity="0.25" result="fc"/><feComposite in="fc" in2="o" operator="in" result="s"/><feMerge><feMergeNode in="s"/><feMergeNode in="SourceGraphic"/></feMerge></filter><linearGradient id="ggGf_B1_041_s2_4" x1="0" y1="0" x2="1" y2="1"><stop offset="0%" stop-color="#BAE6FD"/><stop offset="40%" stop-color="#0EA5E9"/><stop offset="100%" stop-color="#0369A1"/></linearGradient><linearGradient id="gsGf_B1_041_s2_4" x1="0.15" y1="0.05" x2="0.85" y2="0.95"><stop offset="0%" stop-color="white" stop-opacity="0.28"/><stop offset="55%" stop-color="white" stop-opacity="0"/></linearGradient><filter id="gfGf_B1_041_s2_4" x="-60%" y="-60%" width="220%" height="220%"><feGaussianBlur in="SourceAlpha" stdDeviation="6" result="b"/><feOffset dx="0" dy="5" result="o"/><feFlood flood-color="#0369A1" flood-opacity="0.25" result="fc"/><feComposite in="fc" in2="o" operator="in" result="s"/><feMerge><feMergeNode in="s"/><feMergeNode in="SourceGraphic"/></feMerge></filter><linearGradient id="ggGf_B1_041_s2_5" x1="0" y1="0" x2="1" y2="1"><stop offset="0%" stop-color="#BAE6FD"/><stop offset="40%" stop-color="#0EA5E9"/><stop offset="100%" stop-color="#0369A1"/></linearGradient><linearGradient id="gsGf_B1_041_s2_5" x1="0.15" y1="0.05" x2="0.85" y2="0.95"><stop offset="0%" stop-color="white" stop-opacity="0.28"/><stop offset="55%" stop-color="white" stop-opacity="0"/></linearGradient><filter id="gfGf_B1_041_s2_5" x="-60%" y="-60%" width="220%" height="220%"><feGaussianBlur in="SourceAlpha" stdDeviation="6" result="b"/><feOffset dx="0" dy="5" result="o"/><feFlood flood-color="#0369A1" flood-opacity="0.25" result="fc"/><feComposite in="fc" in2="o" operator="in" result="s"/><feMerge><feMergeNode in="s"/><feMergeNode in="SourceGraphic"/></feMerge></filter></defs><rect width="816" height="170" fill="#FFFFFF"/><text x="204.0" y="85.0" text-anchor="middle" dominant-baseline="central" font-family="'Helvetica Neue',Arial,sans-serif" font-size="36" font-weight="600" fill="#94A3B8">:</text><text x="408.0" y="85.0" text-anchor="middle" dominant-baseline="central" font-family="'Helvetica Neue',Arial,sans-serif" font-size="38" font-weight="600" fill="#94A3B8">::</text><text x="612.0" y="85.0" text-anchor="middle" dominant-baseline="central" font-family="'Helvetica Neue',Arial,sans-serif" font-size="36" font-weight="600" fill="#94A3B8">:</text><rect x="20.0" y="20.0" width="170.0" height="130.0" rx="8" fill="#F8FAFC" stroke="#E2E8F0" stroke-width="1"/><polygon points="56.33,63.78 61.85,77.41 76.51,78.44 65.25,87.90 68.80,102.16 56.33,94.38 43.86,102.16 47.41,87.90 36.16,78.44 50.82,77.41" fill="url(#ggGf_B1_041_s0_0)" filter="url(#gfGf_B1_041_s0_0)" stroke="#075985" stroke-width="0.7"/><polygon points="56.33,63.78 61.85,77.41 76.51,78.44 65.25,87.90 68.80,102.16 56.33,94.38 43.86,102.16 47.41,87.90 36.16,78.44 50.82,77.41" fill="url(#gsGf_B1_041_s0_0)" stroke="none"/><polygon points="105.00,63.78 110.51,77.41 125.18,78.44 113.92,87.90 117.47,102.16 105.00,94.38 92.53,102.16 96.08,87.90 84.82,78.44 99.49,77.41" fill="url(#ggGf_B1_041_s0_1)" filter="url(#gfGf_B1_041_s0_1)" stroke="#075985" stroke-width="0.7"/><polygon points="105.00,63.78 110.51,77.41 125.18,78.44 113.92,87.90 117.47,102.16 105.00,94.38 92.53,102.16 96.08,87.90 84.82,78.44 99.49,77.41" fill="url(#gsGf_B1_041_s0_1)" stroke="none"/><polygon points="153.67,63.78 159.18,77.41 173.84,78.44 162.59,87.90 166.14,102.16 153.67,94.38 141.20,102.16 144.75,87.90 133.49,78.44 148.15,77.41" fill="url(#ggGf_B1_041_s0_2)" filter="url(#gfGf_B1_041_s0_2)" stroke="#075985" stroke-width="0.7"/><polygon points="153.67,63.78 159.18,77.41 173.84,78.44 162.59,87.90 166.14,102.16 153.67,94.38 141.20,102.16 144.75,87.90 133.49,78.44 148.15,77.41" fill="url(#gsGf_B1_041_s0_2)" stroke="none"/><rect x="218.0" y="20.0" width="170.0" height="130.0" rx="8" fill="#F8FAFC" stroke="#E2E8F0" stroke-width="1"/><polygon points="303.00,66.00 307.94,78.20 321.07,79.13 310.99,87.60 314.17,100.37 303.00,93.40 291.83,100.37 295.01,87.60 284.93,79.13 298.06,78.20" fill="url(#ggGf_B1_041_s1)" filter="url(#gfGf_B1_041_s1)" stroke="#075985" stroke-width="0.7"/><polygon points="303.00,66.00 307.94,78.20 321.07,79.13 310.99,87.60 314.17,100.37 303.00,93.40 291.83,100.37 295.01,87.60 284.93,79.13 298.06,78.20" fill="url(#gsGf_B1_041_s1)" stroke="none"/><rect x="428.0" y="20.0" width="170.0" height="130.0" rx="8" fill="#F8FAFC" stroke="#E2E8F0" stroke-width="1"/><circle cx="464.33" cy="57.33" r="22.33" fill="url(#ggGf_B1_041_s2_0)" filter="url(#gfGf_B1_041_s2_0)" stroke="#0369A1" stroke-width="0.7"/><circle cx="464.33" cy="57.33" r="22.33" fill="url(#gsGf_B1_041_s2_0)" stroke="none"/><circle cx="513.00" cy="57.33" r="22.33" fill="url(#ggGf_B1_041_s2_1)" filter="url(#gfGf_B1_041_s2_1)" stroke="#0369A1" stroke-width="0.7"/><circle cx="513.00" cy="57.33" r="22.33" fill="url(#gsGf_B1_041_s2_1)" stroke="none"/><circle cx="561.67" cy="57.33" r="22.33" fill="url(#ggGf_B1_041_s2_2)" filter="url(#gfGf_B1_041_s2_2)" stroke="#0369A1" stroke-width="0.7"/><circle cx="561.67" cy="57.33" r="22.33" fill="url(#gsGf_B1_041_s2_2)" stroke="none"/><circle cx="464.33" cy="112.67" r="22.33" fill="url(#ggGf_B1_041_s2_3)" filter="url(#gfGf_B1_041_s2_3)" stroke="#0369A1" stroke-width="0.7"/><circle cx="464.33" cy="112.67" r="22.33" fill="url(#gsGf_B1_041_s2_3)" stroke="none"/><circle cx="513.00" cy="112.67" r="22.33" fill="url(#ggGf_B1_041_s2_4)" filter="url(#gfGf_B1_041_s2_4)" stroke="#0369A1" stroke-width="0.7"/><circle cx="513.00" cy="112.67" r="22.33" fill="url(#gsGf_B1_041_s2_4)" stroke="none"/><circle cx="561.67" cy="112.67" r="22.33" fill="url(#ggGf_B1_041_s2_5)" filter="url(#gfGf_B1_041_s2_5)" stroke="#0369A1" stroke-width="0.7"/><circle cx="561.67" cy="112.67" r="22.33" fill="url(#gsGf_B1_041_s2_5)" stroke="none"/><rect x="626.0" y="20.0" width="170.0" height="130.0" rx="8" fill="#F0F4F8" stroke="#94A3B8" stroke-width="1.5" stroke-dasharray="5 3"/><text x="711.0" y="85.0" text-anchor="middle" dominant-baseline="central" font-family="'Helvetica Neue',Arial,sans-serif" font-size="45" font-weight="700" fill="#94A3B8">?</text></svg>