<svg width="480" height="140" viewBox="0 0 480 140" xmlns="http://www.w3.org/2000/svg"><defs><linearGradient id="ggGf_B1_058_s0" x1="0" y1="0" x2="1" y2="1"><stop offset="0%" stop-color="#DBEAFE"/><stop offset="40%" stop-color="#2563EB"/><stop offset="100%" stop-color="#1D4ED8"/></linearGradient><linearGradient id="gsGf_B1_058_s0" x1="0.15" y1="0.05" x2="0.85" y2="0.95"><stop offset="0%" stop-color="white" stop-opacity="0.28"/><stop offset="55%" stop-color="white" stop-opacity="0"/></linearGradient><filter id="gfGf_B1_058_s0" x="-60%" y="-60%" width="220%" height="220%"><feGaussianBlur in="SourceAlpha" stdDeviation="5" result="b"/><feOffset dx="0" dy="4" result="o"/><feFlood flood-color="#1D4ED8" flood-opacity="0.25" result="fc"/><feComposite in="fc" in2="o" operator="in" result="s"/><feMerge><feMergeNode in="s"/><feMergeNode in="SourceGraphic"/></feMerge></filter><linearGradient id="ggGf_B1_058_s1" x1="0" y1="0" x2="1" y2="1"><stop offset="0%" stop-color="#BAE6FD"/><stop offset="40%" stop-color="#38BDF8"/><stop offset="100%" stop-color="#0C4A6E"/></linearGradient><linearGradient id="gsGf_B1_058_s1" x1="0.15" y1="0.05" x2="0.85" y2="0.95"><stop offset="0%" stop-color="white" stop-opacity="0.28"/><stop offset="55%" stop-color="white" stop-opacity="0"/></linearGradient><filter id="gfGf_B1_058_s1" x="-60%" y="-60%" width="220%" height="220%"><feGaussianBlur in="SourceAlpha" stdDeviation="5" result="b"/><feOffset dx="0" dy="4" result="o"/><feFlood flood-color="#0C4A6E" flood-opacity="0.25" result="fc"/><feComposite in="fc" in2="o" operator="in" result="s"/><feMerge><feMergeNode in="s"/><feMergeNode in="SourceGraphic"/></feMerge></filter><linearGradient id="ggGf_B1_058_s2" x1="0" y1="0" x2="1" y2="1"><stop offset="0%" stop-color="#93C5FD"/><stop offset="40%" stop-color="#1D4ED8"/><stop offset="100%" stop-color="#172554"/></linearGradient><linearGradient id="gsGf_B1_058_s2" x1="0.15" y1="0.05" x2="0.85" y2="0.95"><stop offset="0%" stop-color="white" stop-opacity="0.28"/><stop offset="55%" stop-color="white" stop-opacity="0"/></linearGradient><filter id="gfGf_B1_058_s2" x="-60%" y="-60%" width="220%" height="220%"><feGaussianBlur in="SourceAlpha" stdDeviation="5" result="b"/><feOffset dx="0" dy="4" result="o"/><feFlood flood-color="#172554" flood-opacity="0.25" result="fc"/><feComposite in="fc" in2="o" operator="in" result="s"/><feMerge><feMergeNode in="s"/><feMergeNode in="SourceGraphic"/></feMerge></filter><linearGradient id="ggGf_B1_058_s3" x1="0" y1="0" x2="1" y2="1"><stop offset="0%" stop-color="#DBEAFE"/><stop offset="40%" stop-color="#2563EB"/><stop offset="100%" stop-color="#1D4ED8"/></linearGradient><linearGradient id="gsGf_B1_058_s3" x1="0.15" y1="0.05" x2="0.85" y2="0.95"><stop offset="0%" stop-color="white" stop-opacity="0.28"/><stop offset="55%" stop-color="white" stop-opacity="0"/></linearGradient><filter id="gfGf_B1_058_s3" x="-60%" y="-60%" width="220%" height="220%"><feGaussianBlur in="SourceAlpha" stdDeviation="5" result="b"/><feOffset dx="0" dy="4" result="o"/><feFlood flood-color="#1D4ED8" flood-opacity="0.25" result="fc"/><feComposite in="fc" in2="o" operator="in" result="s"/><feMerge><feMergeNode in="s"/><feMergeNode in="SourceGraphic"/></feMerge></filter></defs><rect width="480" height="140" fill="#FFFFFF"/><rect x="20.0" y="30.0" width="80.0" height="80.0" rx="8" fill="#F8FAFC" stroke="#E2E8F0" stroke-width="1"/><polygon points="60.00,50.00 80.00,70.00 60.00,90.00 40.00,70.00" fill="url(#ggGf_B1_058_s0)" filter="url(#gfGf_B1_058_s0)" stroke="#1D4ED8" stroke-width="0.7"/><polygon points="60.00,50.00 80.00,70.00 60.00,90.00 40.00,70.00" fill="url(#gsGf_B1_058_s0)" stroke="none"/><rect x="110.0" y="30.0" width="80.0" height="80.0" rx="8" fill="#F8FAFC" stroke="#E2E8F0" stroke-width="1"/><polygon points="150.00,34.30 183.95,58.97 170.98,98.88 129.02,98.88 116.05,58.97" fill="url(#ggGf_B1_058_s1)" filter="url(#gfGf_B1_058_s1)" stroke="#0C4A6E" stroke-width="0.7"/><polygon points="150.00,34.30 183.95,58.97 170.98,98.88 129.02,98.88 116.05,58.97" fill="url(#gsGf_B1_058_s1)" stroke="none"/><rect x="200.0" y="30.0" width="80.0" height="80.0" rx="8" fill="#F8FAFC" stroke="#E2E8F0" stroke-width="1"/><polygon points="260.00,70.00 250.00,87.32 230.00,87.32 220.00,70.00 230.00,52.68 250.00,52.68" fill="url(#ggGf_B1_058_s2)" filter="url(#gfGf_B1_058_s2)" stroke="#172554" stroke-width="0.7"/><polygon points="260.00,70.00 250.00,87.32 230.00,87.32 220.00,70.00 230.00,52.68 250.00,52.68" fill="url(#gsGf_B1_058_s2)" stroke="none"/><rect x="290.0" y="30.0" width="80.0" height="80.0" rx="8" fill="#F8FAFC" stroke="#E2E8F0" stroke-width="1"/><polygon points="330.00,36.00 364.00,70.00 330.00,104.00 296.00,70.00" fill="url(#ggGf_B1_058_s3)" filter="url(#gfGf_B1_058_s3)" stroke="#1D4ED8" stroke-width="0.7"/><polygon points="330.00,36.00 364.00,70.00 330.00,104.00 296.00,70.00" fill="url(#gsGf_B1_058_s3)" stroke="none"/><rect x="380.0" y="30.0" width="80.0" height="80.0" rx="8" fill="#F0F4F8" stroke="#94A3B8" stroke-width="1.5" stroke-dasharray="5 3"/><text x="420.0" y="70.0" text-anchor="middle" dominant-baseline="central" font-family="'Helvetica Neue',Arial,sans-serif" font-size="30" font-weight="700" fill="#94A3B8">?</text></svg>