<svg width="310" height="310" viewBox="0 0 310 310" xmlns="http://www.w3.org/2000/svg"><circle cx="155" cy="155" r="110" fill="#F8FAFC" stroke="#1E3A8A" stroke-width="3"/><line x1="155.0" y1="57.0" x2="155.0" y2="48.0" stroke="#1E3A8A" stroke-width="3"/><line x1="204.0" y1="70.1" x2="208.5" y2="62.3" stroke="#1E3A8A" stroke-width="1.5"/><line x1="239.9" y1="106.0" x2="247.7" y2="101.5" stroke="#1E3A8A" stroke-width="1.5"/><line x1="253.0" y1="155.0" x2="262.0" y2="155.0" stroke="#1E3A8A" stroke-width="3"/><line x1="239.9" y1="204.0" x2="247.7" y2="208.5" stroke="#1E3A8A" stroke-width="1.5"/><line x1="204.0" y1="239.9" x2="208.5" y2="247.7" stroke="#1E3A8A" stroke-width="1.5"/><line x1="155.0" y1="253.0" x2="155.0" y2="262.0" stroke="#1E3A8A" stroke-width="3"/><line x1="106.0" y1="239.9" x2="101.5" y2="247.7" stroke="#1E3A8A" stroke-width="1.5"/><line x1="70.1" y1="204.0" x2="62.3" y2="208.5" stroke="#1E3A8A" stroke-width="1.5"/><line x1="57.0" y1="155.0" x2="48.0" y2="155.0" stroke="#1E3A8A" stroke-width="3"/><line x1="70.1" y1="106.0" x2="62.3" y2="101.5" stroke="#1E3A8A" stroke-width="1.5"/><line x1="106.0" y1="70.1" x2="101.5" y2="62.3" stroke="#1E3A8A" stroke-width="1.5"/><text x="196.0" y="89.0" text-anchor="middle" font-family="system-ui,sans-serif" font-size="17" font-weight="700" fill="#334155">1</text><text x="226.0" y="119.0" text-anchor="middle" font-family="system-ui,sans-serif" font-size="17" font-weight="700" fill="#334155">2</text><text x="237.0" y="160.0" text-anchor="middle" font-family="system-ui,sans-serif" font-size="17" font-weight="700" fill="#334155">3</text><text x="226.0" y="201.0" text-anchor="middle" font-family="system-ui,sans-serif" font-size="17" font-weight="700" fill="#334155">4</text><text x="196.0" y="231.0" text-anchor="middle" font-family="system-ui,sans-serif" font-size="17" font-weight="700" fill="#334155">5</text><text x="155.0" y="242.0" text-anchor="middle" font-family="system-ui,sans-serif" font-size="17" font-weight="700" fill="#334155">6</text><text x="114.0" y="231.0" text-anchor="middle" font-family="system-ui,sans-serif" font-size="17" font-weight="700" fill="#334155">7</text><text x="84.0" y="201.0" text-anchor="middle" font-family="system-ui,sans-serif" font-size="17" font-weight="700" fill="#334155">8</text><text x="73.0" y="160.0" text-anchor="middle" font-family="system-ui,sans-serif" font-size="17" font-weight="700" fill="#334155">9</text><text x="84.0" y="119.0" text-anchor="middle" font-family="system-ui,sans-serif" font-size="17" font-weight="700" fill="#334155">10</text><text x="114.0" y="89.0" text-anchor="middle" font-family="system-ui,sans-serif" font-size="17" font-weight="700" fill="#334155">11</text><text x="155.0" y="78.0" text-anchor="middle" font-family="system-ui,sans-serif" font-size="17" font-weight="700" fill="#334155">12</text><line x1="155" y1="155" x2="120.2" y2="200.4" stroke="#1E3A8A" stroke-width="6" stroke-linecap="round"/><line x1="155" y1="155" x2="238.6" y2="155.0" stroke="#1E3A8A" stroke-width="4" stroke-linecap="round"/><circle cx="155" cy="155" r="5" fill="#1E3A8A"/></svg>