<svg width="500" height="500" viewBox="0 0 500 500" xmlns="http://www.w3.org/2000/svg"><defs><linearGradient id="gsGf_B1_050_C_0" x1="0.15" y1="0.05" x2="0.85" y2="0.95"><stop offset="0%" stop-color="white" stop-opacity="0.28"/><stop offset="55%" stop-color="white" stop-opacity="0"/></linearGradient><filter id="gfGf_B1_050_C_0" x="-60%" y="-60%" width="220%" height="220%"><feGaussianBlur in="SourceAlpha" stdDeviation="8" result="b"/><feOffset dx="0" dy="7" result="o"/><feFlood flood-color="#075985" flood-opacity="0.25" result="fc"/><feComposite in="fc" in2="o" operator="in" result="s"/><feMerge><feMergeNode in="s"/><feMergeNode in="SourceGraphic"/></feMerge></filter><linearGradient id="gsGf_B1_050_C_1" x1="0.15" y1="0.05" x2="0.85" y2="0.95"><stop offset="0%" stop-color="white" stop-opacity="0.28"/><stop offset="55%" stop-color="white" stop-opacity="0"/></linearGradient><filter id="gfGf_B1_050_C_1" x="-60%" y="-60%" width="220%" height="220%"><feGaussianBlur in="SourceAlpha" stdDeviation="8" result="b"/><feOffset dx="0" dy="7" result="o"/><feFlood flood-color="#075985" flood-opacity="0.25" result="fc"/><feComposite in="fc" in2="o" operator="in" result="s"/><feMerge><feMergeNode in="s"/><feMergeNode in="SourceGraphic"/></feMerge></filter><linearGradient id="gsGf_B1_050_C_2" x1="0.15" y1="0.05" x2="0.85" y2="0.95"><stop offset="0%" stop-color="white" stop-opacity="0.28"/><stop offset="55%" stop-color="white" stop-opacity="0"/></linearGradient><filter id="gfGf_B1_050_C_2" x="-60%" y="-60%" width="220%" height="220%"><feGaussianBlur in="SourceAlpha" stdDeviation="8" result="b"/><feOffset dx="0" dy="7" result="o"/><feFlood flood-color="#075985" flood-opacity="0.25" result="fc"/><feComposite in="fc" in2="o" operator="in" result="s"/><feMerge><feMergeNode in="s"/><feMergeNode in="SourceGraphic"/></feMerge></filter><linearGradient id="gsGf_B1_050_C_3" x1="0.15" y1="0.05" x2="0.85" y2="0.95"><stop offset="0%" stop-color="white" stop-opacity="0.28"/><stop offset="55%" stop-color="white" stop-opacity="0"/></linearGradient><filter id="gfGf_B1_050_C_3" x="-60%" y="-60%" width="220%" height="220%"><feGaussianBlur in="SourceAlpha" stdDeviation="8" result="b"/><feOffset dx="0" dy="7" result="o"/><feFlood flood-color="#075985" flood-opacity="0.25" result="fc"/><feComposite in="fc" in2="o" operator="in" result="s"/><feMerge><feMergeNode in="s"/><feMergeNode in="SourceGraphic"/></feMerge></filter><linearGradient id="gsGf_B1_050_C_4" x1="0.15" y1="0.05" x2="0.85" y2="0.95"><stop offset="0%" stop-color="white" stop-opacity="0.28"/><stop offset="55%" stop-color="white" stop-opacity="0"/></linearGradient><filter id="gfGf_B1_050_C_4" x="-60%" y="-60%" width="220%" height="220%"><feGaussianBlur in="SourceAlpha" stdDeviation="8" result="b"/><feOffset dx="0" dy="7" result="o"/><feFlood flood-color="#075985" flood-opacity="0.25" result="fc"/><feComposite in="fc" in2="o" operator="in" result="s"/><feMerge><feMergeNode in="s"/><feMergeNode in="SourceGraphic"/></feMerge></filter></defs><rect width="500" height="500" fill="#FFFFFF"/><polygon points="114.67,53.23 130.63,92.69 173.09,95.68 140.50,123.06 150.78,164.37 114.67,141.83 78.56,164.37 88.84,123.06 56.24,95.68 98.70,92.69" fill="none" filter="url(#gfGf_B1_050_C_0)" stroke="#0EA5E9" stroke-width="2.0"/><polygon points="250.00,53.23 265.96,92.69 308.43,95.68 275.83,123.06 286.11,164.37 250.00,141.83 213.89,164.37 224.17,123.06 191.57,95.68 234.04,92.69" fill="none" filter="url(#gfGf_B1_050_C_1)" stroke="#0EA5E9" stroke-width="2.0"/><polygon points="385.33,53.23 401.30,92.69 443.76,95.68 411.16,123.06 421.44,164.37 385.33,141.83 349.22,164.37 359.50,123.06 326.91,95.68 369.37,92.69" fill="none" filter="url(#gfGf_B1_050_C_2)" stroke="#0EA5E9" stroke-width="2.0"/><polygon points="182.33,323.90 198.30,363.36 240.76,366.35 208.16,393.73 218.44,435.03 182.33,412.49 146.22,435.03 156.50,393.73 123.91,366.35 166.37,363.36" fill="none" filter="url(#gfGf_B1_050_C_3)" stroke="#0EA5E9" stroke-width="2.0"/><polygon points="317.67,323.90 333.63,363.36 376.09,366.35 343.50,393.73 353.78,435.03 317.67,412.49 281.56,435.03 291.84,393.73 259.24,366.35 301.70,363.36" fill="none" filter="url(#gfGf_B1_050_C_4)" stroke="#0EA5E9" stroke-width="2.0"/></svg>